<?xml version="1.0" encoding="UTF-8"?>
<svg id="Layer_1" data-name="Layer 1" xmlns="http://www.w3.org/2000/svg" version="1.1" viewBox="0 0 60 60">
  <defs>
    <style>
      .cls-1 {
        fill: none;
        stroke: #e3b87a;
        stroke-width: .7px;
      }
    </style>
  </defs>
  <path class="cls-1" d="M11.8,2c0,1-.3,9.8-9.8,9.8H.3v36.4h1.7c1,0,9.8.3,9.8,9.8v1.7h36.4v-1.7c0-1,.3-9.8,9.8-9.8h1.7V11.8h-1.7c-1,0-9.8-.3-9.8-9.8V.3H11.8v1.7Z"/>
  <path class="cls-1" d="M15,3.7c-.6,4.4-3.4,10.6-11.4,11.4v29.9c4.4.6,10.6,3.4,11.4,11.4h29.9c.6-4.4,3.4-10.6,11.4-11.4V15c-4.4-.6-10.6-3.4-11.4-11.4H15Z"/>
</svg>