<?xml version="1.0" encoding="UTF-8"?>
<svg id="Layer_1" data-name="Layer 1" xmlns="http://www.w3.org/2000/svg" version="1.1" viewBox="0 0 47.1 49">
  <defs>
    <style>
      .cls-1 {
        fill: #241e21;
      }

      .cls-1, .cls-2 {
        stroke-width: 0px;
      }

      .cls-2 {
        fill: #232020;
      }
    </style>
  </defs>
  <path class="cls-2" d="M14.4,12.7c-2.1,7.2-3.2,15-2.7,22.6.2,2.8.4,9.1,3.8,10,4.2,1.1,6.6-7.1,7.7-10,3.2-8.5,4.6-17.1,2.4-26.2-.9-3.3-3.5-9.1-7.4-5.1-2.1,2.1-3,5.9-3.8,8.7M25,47c.3-.1.7-.3,1-.4-2-.3-3.9-.6-5.9-.9-.2.2-.4.4-.6.6,1.8.3,3.6.6,5.5.8M23.1,41.3c2.3.1,4.6.3,7,.4.7-1.4,1.4-3,1.9-4.6-2.2-.3-4.4-.6-6.6-1-.6,1.8-1.4,3.5-2.2,5.1M29.7,42.5c-2.3-.1-4.6-.3-7-.4-.3.5-.6,1-1,1.5,2.1.3,4.1.6,6.2.9.1,0,.2,0,.3.1.6-.6,1.1-1.4,1.5-2.2M27.6,45.3c-2.1-.3-4.2-.7-6.4-1-.1.1-.2.3-.3.4,0,0-.2.2-.2.3,2.1.3,4.1.6,6.2.9.3-.2.5-.4.7-.7M34.1,28.7c0-.3.1-.7.2-1-2.1-.2-4.2-.4-6.3-.6,0,0,0,0,0,0-.6,2.7-1.3,5.6-2.2,8.5,2.2.3,4.4.6,6.6.9.9-2.9,1.5-5.8,1.8-7.7M35.1,17.4c0,0-.1,0-.2,0-.7-.1-1.3-.3-2-.4-.5-.1-.3-.8.2-.7.7.1,1.3.3,2,.4,0-1.4-.2-2.9-.5-4.3-2.1-.4-4.3-.7-6.4-1.1.3,1.4.4,2.9.5,4.3.4,0,.7.1,1.1.2.5,0,.5.8,0,.8-.3,0-.7-.1-1-.2.2,3.3,0,6.6-.7,9.9,2.1.2,4.2.4,6.4.6.5-3.1.8-6.3.7-9.6M26,4.2c2,.3,4,.6,6,.9-.3-.5-.6-1-.9-1.5-2-.3-4-.6-6-.9.3.5.6,1,.9,1.5M26.9,6.2c2.1.4,4.2.9,6.3,1.3-.2-.5-.5-1.1-.7-1.6-2-.3-4.1-.6-6.1-.9.2.4.3.8.5,1.2M27.7,8.7c.1.6.3,1.2.4,1.9,2.1.4,4.2.7,6.4,1.1-.2-1.1-.5-2.2-.9-3.2-2.1-.4-4.2-.9-6.3-1.3.2.6.4,1.1.5,1.6M20.4,0c.1,0,.3,0,.5,0,3.6.5,7.2,1.2,10.8,1.7.3,0,.6.2.7.4,0,0,.1,0,.1.1,5.8,8.1,5.2,19.2,3.2,28.1-1.2,5.6-3.7,16-10,18.4-.1.1-.3.2-.6.2-.2,0-.4,0-.6,0-2.9-.4-5.7-.8-8.6-1.3-.5,0-1.1-.1-1.7-.4-3.5-1.5-4.1-6.7-4.5-9.8-1.2-10.4.3-22.7,5.1-32C16,3.4,17.8.4,20.4,0"/>
  <path class="cls-2" d="M13.9,38.1c0,1,0,2.1.6,3.1.6,1.1,1.9,2,3.1,1.2.4-.3.8.2.5.5-1,.7-2.3.7-3.3-.1-1.4-1.1-1.6-3-1.6-4.7,0-.4.7-.4.7,0"/>
  <path class="cls-2" d="M24,9.3c0,.4-.7.4-.7,0,0-.8-.2-1.6-.6-2.4-.3-.8-1.3-2.6-2.4-2-.4.2-.7-.4-.3-.6,2.5-1.3,3.9,3.5,4,5.1"/>
  <path class="cls-1" d="M11.1,10.6c-.5-.5-1-1-1.5-1.5l-1.5-1.5c-.5-.5-1-1-1.5-1.6-.4-.6-.8-1.1-1.2-1.8h0c.6.4,1.1.9,1.6,1.4.5.5.9,1.1,1.4,1.7l1.3,1.7c.4.6.9,1.1,1.3,1.7h0Z"/>
  <path class="cls-1" d="M9.8,16.4c-.7,0-1.4.1-2.2.2h-2.2c-.7.2-1.4.2-2.2.2-.7,0-1.4-.1-2.2-.3h0c.7-.3,1.4-.3,2.2-.4.7,0,1.4,0,2.2,0h2.2c.7.1,1.4.2,2.2.2h0Z"/>
  <path class="cls-1" d="M8,29.8c-.6.3-1.3.6-1.9.9l-2,.9c-.7.3-1.3.6-2,.9-.7.2-1.4.4-2.1.5H0c.6-.5,1.2-.8,1.9-1.2.6-.3,1.3-.5,2-.7l2-.7c.7-.2,1.4-.5,2.1-.7h0Z"/>
  <path class="cls-1" d="M8.8,40c-.4.6-.9,1.1-1.3,1.7l-1.4,1.6c-.5.5-.9,1.1-1.4,1.6-.5.5-1,1-1.7,1.4h0c.3-.7.8-1.3,1.2-1.8.4-.6,1-1,1.5-1.5l1.5-1.5c.5-.5,1-1,1.5-1.5h0Z"/>
  <path class="cls-1" d="M38.2,12c.6-.4,1.2-.8,1.7-1.3l1.7-1.3c.6-.4,1.2-.8,1.7-1.3.5-.5,1-1,1.4-1.6h0c-.7.3-1.3.7-1.8,1.1-.6.4-1.1.9-1.6,1.4l-1.6,1.5c-.5.5-1,1-1.6,1.5h0Z"/>
  <path class="cls-1" d="M38.5,17.8c.7.2,1.4.3,2.1.5l2.1.4c.7.1,1.4.3,2.1.4.7,0,1.4.1,2.2,0h0c-.7-.4-1.4-.6-2.1-.7-.7-.2-1.4-.2-2.1-.3l-2.2-.2c-.7,0-1.4-.2-2.2-.2h0Z"/>
  <path class="cls-1" d="M38.1,31.4c.6.4,1.2.8,1.8,1.2l1.8,1.2c.6.4,1.2.8,1.8,1.2.6.3,1.3.6,2,.8h0c-.5-.6-1.1-1-1.7-1.4-.6-.4-1.3-.7-1.9-1l-1.9-1c-.6-.3-1.3-.7-1.9-1h0Z"/>
  <path class="cls-1" d="M35.8,41.4c.3.6.7,1.2,1,1.9l1.1,1.8c.4.6.7,1.3,1.1,1.8.4.6.9,1.1,1.4,1.6h0c-.2-.7-.6-1.4-.9-2-.3-.6-.8-1.2-1.2-1.7l-1.3-1.7c-.4-.6-.8-1.1-1.3-1.7h0Z"/>
</svg>