<?xml version="1.0" encoding="UTF-8"?>
<svg xmlns="http://www.w3.org/2000/svg" version="1.1" viewBox="0 0 43.4 41.5">
  <defs>
    <style>
      .cls-1 {
        fill: #e9bf7b;
      }
    </style>
  </defs>
  <!-- Generator: Adobe Illustrator 28.6.0, SVG Export Plug-In . SVG Version: 1.2.0 Build 709)  -->
  <g>
    <g id="Layer_1">
      <g>
        <path class="cls-1" d="M35.1,2.1h0c0,0,0,0,0,0h0s0,0,0,0H8.4L2,8.4v24.6l6.4,6.4h.2c0,0,26.4,0,26.4,0l6.3-6.3h0V8.5l-6.3-6.3ZM2.6,32.9V8.6l6.2-6.2h26l6.1,6.1v24.3l-6.2,6.2H8.6l-6.1-6.1Z"/>
        <path class="cls-1" d="M36.2.4l-.3-.4h-.2c0,0-28.1,0-28.1,0l-.4.4L0,7.6v26.3l7.6,7.6h.2c0,0,28.1,0,28.1,0l7.6-7.6V7.7L36.2.4ZM.6,33.8V7.8L7.9.5h27.6l7.2,7.2v25.9l-7.3,7.3H7.8l-7.2-7.2Z"/>
      </g>
    </g>
  </g>
</svg>