<?xml version="1.0" encoding="UTF-8"?>
<svg id="Layer_1" data-name="Layer 1" xmlns="http://www.w3.org/2000/svg" version="1.1" xmlns:xlink="http://www.w3.org/1999/xlink" viewBox="0 0 70.8 3">
  <defs>
    <style>
      .cls-1 {
        clip-path: url(#clippath-2);
      }

      .cls-2 {
        fill: none;
      }

      .cls-2, .cls-3 {
        stroke-width: 0px;
      }

      .cls-4 {
        clip-path: url(#clippath-1);
      }

      .cls-5 {
        clip-path: url(#clippath);
      }

      .cls-6 {
        opacity: .2;
      }

      .cls-3 {
        fill: #231f20;
      }
    </style>
    <clipPath id="clippath">
      <rect class="cls-2" width="70.8" height="3"/>
    </clipPath>
    <clipPath id="clippath-1">
      <rect class="cls-2" y="1.1" width="70.8" height="1.9"/>
    </clipPath>
    <clipPath id="clippath-2">
      <rect class="cls-2" x="-1.3" y="-10.4" width="80.4" height="24.6"/>
    </clipPath>
  </defs>
  <g class="cls-5">
    <g class="cls-4">
      <g class="cls-6">
        <g class="cls-1">
          <path class="cls-3" d="M66.6,2.9c.2,0,.5,0,.4-.1,0,0,0,0,.2,0,.4,0,.2,0,.6,0-.2,0,.2,0,.4,0,0,0,0,0-.2,0h.5c0,0,.4,0,.4,0,0,0,.4,0,.7-.1.4,0,.4-.1.4-.2q.7,0,.6-.1c0,0,.3,0,.5,0-.2,0-.5-.1-1.2-.1,0,0-.3,0-.4,0-.4,0-.8,0-1.3,0-2.9,0-5.9-.1-8.9-.2-2.4,0-4.9,0-7.4-.1-2.1,0-4,0-6,0-.7,0-1.3,0-1.9,0-.7,0-1.6,0-2.2,0-.4,0-.8,0-1.3,0-1,0-1.8,0-2.6,0-.4,0-.7,0-1.1,0-.3,0-.6,0-.7,0-.7,0-1.3,0-2.1,0-.3,0-.6,0-.8,0-.3,0-.6,0-.8,0-.7,0-1.2,0-1.7,0,0,0-.2,0-.3,0-.2,0-.5,0-1,0-.6,0-1.2,0-1.7,0-.4,0-.8,0-1.2,0-.6,0-.9,0-1.4,0-1.1,0-2.2,0-3.2,0-.4,0-.8,0-1.1,0h-3.7c-.7,0-1.3,0-2.2,0,0,0-.3,0-.3,0-.5,0-1.2,0-1.6,0,0,0-.2,0-.4,0-.6,0-1,0-1.6,0-.7,0-1.2,0-2,0-.3,0-.7,0-.9,0-.5,0-.7,0-1.1,0h.3c-.6,0-.8,0-1.3,0,0,0,.2,0,.3,0,.2,0,.5,0,.4,0-.3,0-.6,0-.7,0-.5,0-.9,0-1.5,0-.2,0-.4,0-.7,0,0,0,0,0,.2,0,.2,0,.4,0,.3,0,0,0,0,0,.3,0q0,0,0,0h0s0,0,0,0h0c0,0-.2,0-.4,0-.6,0-.9,0-1.7,0,0,0-.1,0-.1,0,0,0,0,0,.1,0,.2,0,.5,0,.6,0h-.9c.4,0,.9,0,1.1.1-.7,0-1.6,0-2.2,0h-.2c0,0-.2,0-.3,0,0,0,.3,0,.4,0,0,0-.3,0-.3,0,.3,0,.5,0,.7.1.3,0,.6.1.7.2,0,0,.2,0,.6,0,.7,0,1.5,0,2.3,0,.8,0,1.9,0,2.3,0,0,0,.2,0,.4,0,.5,0,.8,0,1.3,0,.3,0,.7,0,.8,0,.2,0,.5,0,.7,0,.6,0,.9,0,1.3,0h1.3c.7,0,1.4,0,2.2,0,.6,0,1.1,0,1.6,0,.7,0,1.6,0,2.4,0,.8,0,1.7,0,2.6,0,.8,0,1.8,0,2.4,0,0,0,.3,0,.5,0,.3,0,.5,0,.7,0,1,0,2.1,0,3,0h.7c.7,0,1.4,0,2,0,.6,0,1,0,1.6,0,1,0,2.1,0,3.1,0,1.1,0,2.3,0,3.5,0,.2,0,.5,0,.7,0h.8c.7,0,1.2,0,1.9,0,1,0,2.1,0,3.2,0,.2,0,.5,0,.6,0,.7,0,1.4,0,2.3,0,.4,0,.9,0,1.3,0,.7,0,1.3,0,2.2,0,.2,0,.3,0,.4,0,.6,0,1.1,0,1.8,0,2,0,3.9,0,6,0,1.6,0,3.1,0,4.7,0,.7,0,1.3,0,2.1,0"/>
        </g>
      </g>
    </g>
  </g>
</svg>