<?xml version="1.0" encoding="UTF-8"?>
<svg id="Layer_1" data-name="Layer 1" xmlns="http://www.w3.org/2000/svg" version="1.1" viewBox="0 0 15 15">
  <defs>
    <style>
      .cls-1 {
        stroke-dasharray: 0 0 2.6 1.6;
      }

      .cls-1, .cls-2 {
        stroke: #1d1d1b;
      }

      .cls-1, .cls-2, .cls-3 {
        fill: none;
        stroke-miterlimit: 10;
        stroke-width: 1px;
      }

      .cls-2 {
        stroke-dasharray: 0 0 2.6 1.6;
      }

      .cls-3 {
        stroke: #000;
      }
    </style>
  </defs>
  <path class="cls-1" d="M1,4.2c0,2.3,0,5.5,0,7.5"/>
  <path class="cls-2" d="M8.7,13.6c1.1,0,2.3,0,3.3,0"/>
  <path class="cls-3" d="M12.8,13.6c.7,0,1.2,0,1.3,0,0-.3,0-2.7,0-2.8,0,0,0-.7,0-1.5M4.4,13.7c.6,0,1.1,0,1.4,0,.1,0,.6,0,1.3,0M1.1,12.5c0,.8,0,1.2,0,1.3.2,0,.7,0,1.4,0M4.1,1.3c-.7,0-1.4,0-1.5,0-.2,0-1.4,0-1.7,0,0,.2,0,.7,0,1.3M9,1.3c-.6,0-1.1,0-1.3,0,0,0-.7,0-1.5,0M14,2.9c0-.6,0-1.2,0-1.2,0-.1,0-.3,0-.4-.4,0-1.7,0-2,0-.2,0-.7,0-1.3,0M14.1,7.2c0-.7,0-1.3,0-1.5,0,0,0-.5,0-1.2"/>
</svg>