<?xml version="1.0" encoding="UTF-8"?>
<svg id="Layer_1" data-name="Layer 1" xmlns="http://www.w3.org/2000/svg" version="1.1" viewBox="0 0 15 15">
  <defs>
    <style>
      .cls-1 {
        fill: none;
        stroke: #000;
        stroke-miterlimit: 10;
        stroke-width: 1px;
      }
    </style>
  </defs>
  <path class="cls-1" d="M14.1,10.8s.1-4.3,0-5.2c0,.1,0-3.7,0-3.9,0-.1,0-.3,0-.4-.4,0-1.7,0-2,0-.5,0-3.5,0-4.4,0,0,0-4.6,0-5,0-.2,0-1.4,0-1.7,0,0,1.3.2,12.3.2,12.5.4,0,3.5,0,4.7,0,.5,0,8,0,8.3,0,0-.3,0-2.7,0-2.8Z"/>
</svg>